{"title":"LMFAO - Party Rock Anthem ft. Lauren Bennett, GoonRock 1080 Anky","uid":6556875,"size":240696683,"categoryP":"video","categoryS":"music_videos","magnet":"?xt=urn:btih:39eba9c669f239d972559ac35bf593b7409b685a&amp;dn=LMFAO+-+Party+Rock+Anthem+ft.+Lauren+Bennett%2C+GoonRock+1080+Anky&amp;tr=udp%3A%2F%2Ftracker.openbittorrent.com%3A80&amp;tr=udp%3A%2F%2Fopen.demonii.com%3A1337&amp;tr=udp%3A%2F%2Ftracker.coppersurfer.tk%3A6969&amp;tr=udp%3A%2F%2Fexodus.desync.com%3A6969","seeders":1,"leechers":0,"uploader":"ankygautam","files":2,"time":1311328443,"description":"[img]http://img.sceper.eu/images/lmfaoppkp.jpg[/img]\n\nGeneral\nComplete name                    : LMFAO - Party Rock Anthem ft. Lauren Bennett, GoonRock 1080 Anky.mp4\nFormat                           : MPEG-4\nFormat profile                   : Base Media / Version 2\nCodec ID                         : mp42\nFile size                        : 230 MiB\nDuration                         : 6mn 15s\n\nVideo\nID                               : 1\nFormat                           : AVC\nFormat/Info                      : Advanced Video Codec\nFormat profile                   : &lt;a class=&quot;__cf_email__&quot; href=&quot;/cdn-cgi/l/email-protection&quot; data-cfemail=&quot;024a6b656a424e362c32&quot;&gt;[email&amp;#160;protected]&lt;/a&gt;&lt;script cf-hash='f9e31' type=&quot;text/javascript&quot;&gt;\n/* &lt;![CDATA[ */!function(){try{var t=&quot;currentScript&quot;in document?document.currentScript:function(){for(var t=document.getElementsByTagName(&quot;script&quot;),e=t.length;e--;)if(t[e].getAttribute(&quot;cf-hash&quot;))return t[e]}();if(t&amp;&amp;t.previousSibling){var e,r,n,i,c=t.previousSibling,a=c.getAttribute(&quot;data-cfemail&quot;);if(a){for(e=&quot;&quot;,r=parseInt(a.substr(0,2),16),n=2;a.length-n;n+=2)i=parseInt(a.substr(n,2),16)^r,e+=String.fromCharCode(i);e=document.createTextNode(e),c.parentNode.replaceChild(e,c)}}}catch(u){}}();/* ]]&gt; */&lt;/script&gt;\nFormat settings, CABAC           : Yes\nFormat settings, ReFrames        : 1 frame\nCodec ID                         : avc1\nCodec ID/Info                    : Advanced Video Coding\nDuration                         : 6mn 15s\nBit rate mode                    : Variable\nBit rate                         : 4 999 Kbps\nMaximum bit rate                 : 12.0 Mbps\nWidth                            : 1 920 pixels\nHeight                           : 1 080 pixels\nDisplay aspect ratio             : 16:9\nFrame rate mode                  : Variable\nFrame rate                       : 23.976 fps\nMinimum frame rate               : 17.241 fps\nMaximum frame rate               : 24.390 fps\nResolution                       : 24 bits\nColorimetry                      : 4:2:0\nScan type                        : Progressive\nBits/(Pixel*Frame)               : 0.101\nStream size                      : 224 MiB (97%)\n\nAudio\nID                               : 2\nFormat                           : AAC\nFormat/Info                      : Advanced Audio Codec\nFormat version                   : Version 4\nFormat profile                   : LC\nFormat settings, SBR             : No\nCodec ID                         : 40\nDuration                         : 6mn 15s\nBit rate mode                    : Variable\nBit rate                         : 124 Kbps\nMaximum bit rate                 : 168 Kbps\nChannel(s)                       : 2 channels\nChannel positions                : L R\nSampling rate                    : 44.1 KHz\nResolution                       : 16 bits\nStream size                      : 5.56 MiB (2%)\n\n\nScreenShots\n[img]http://img.sceper.eu/images/vlcsnabcb.jpg[/img]\n[img]http://img.sceper.eu/images/vlcsnapyp.jpg[/img]\n[img]http://img.sceper.eu/images/vlcsnagrg.jpg[/img]","torrent":{"xt":"urn:btih:39eba9c669f239d972559ac35bf593b7409b685a","amp;dn":"LMFAO+-+Party+Rock+Anthem+ft.+Lauren+Bennett%2C+GoonRock+1080+Anky","amp;tr":["udp%3A%2F%2Ftracker.openbittorrent.com%3A80","udp%3A%2F%2Fopen.demonii.com%3A1337","udp%3A%2F%2Ftracker.coppersurfer.tk%3A6969","udp%3A%2F%2Fexodus.desync.com%3A6969"],"infoHash":"39eba9c669f239d972559ac35bf593b7409b685a","infoHashBuffer":{"type":"Buffer","data":[57,235,169,198,105,242,57,217,114,85,154,195,91,245,147,183,64,155,104,90]},"announce":[],"urlList":[]}}